<svg xmlns="http://www.w3.org/2000/svg" fill="none" viewBox="0 0 1024 1024"><circle cx="512" cy="512" r="512" fill="#381FD0"/><path fill="#fff" fill-rule="evenodd" d="M496.759 765.526v-76.389a177.428 177.428 0 0 0 140.964-51.422c59.054-59.058 69.058-151.246 24.048-221.595L416.109 661.76l-54.768 54.763a256.003 256.003 0 0 1-28.948-24.932c-99.191-99.182-99.191-259.994 0-359.183a253.393 253.393 0 0 1 194.846-73.934v76.389a177.428 177.428 0 0 0-140.964 51.422c-59.054 59.058-69.058 151.246-24.048 221.595l245.662-245.637 54.77-54.762a256.003 256.003 0 0 1 28.948 24.932c99.191 99.182 99.191 259.994 0 359.183a253.395 253.395 0 0 1-194.848 73.93Z" clip-rule="evenodd"/></svg>